<?xml version="1.0" encoding="utf-8"?>
<!-- Generator: Adobe Illustrator 22.1.0, SVG Export Plug-In . SVG Version: 6.00 Build 0)  -->
<svg version="1.1" baseProfile="basic" id="Livello_1"
	 xmlns="http://www.w3.org/2000/svg" xmlns:xlink="http://www.w3.org/1999/xlink" x="0px" y="0px" viewBox="0 0 154.9 75.3"
	 xml:space="preserve">
<g>
	<g>
		<rect x="30" y="62.5" width="1.7" height="0.8"/>
		<rect x="24.2" y="62.5" width="3.8" height="0.8"/>
		<path d="M15.6,63.2h3.8v-0.8h-3.8V63.2z M21.3,63.2h1.9v-0.8h-1.9V63.2z"/>
		<polygon points="12.5,63.2 14.6,63.2 14.6,62.5 13.3,62.5 13.3,61.3 12.5,61.3 		"/>
		<rect x="12.5" y="52.5" width="0.9" height="5.9"/>
		<path d="M12.5,51h0.9V48h-0.9V51z M12.5,45.1h0.9v-5.9h-0.9V45.1z M12.5,37.7h0.9v-2.9h-0.9V37.7z M12.5,31.8h0.9v-5.9h-0.9V31.8z
			 M12.5,24.5h0.9v-2.9h-0.9V24.5z M12.5,18.6h0.9v-5.9h-0.9V18.6z"/>
		<polygon points="12.5,11.2 13.3,11.2 13.3,10 14.6,10 14.6,9.3 12.5,9.3 		"/>
		<rect x="17.8" y="9.3" width="6.4" height="0.8"/>
		<path d="M25.9,10h3.2V9.3h-3.2V10z M32.3,10h6.4V9.3h-6.4V10z M40.4,10h3.2V9.3h-3.2V10z M46.8,10h6.4V9.3h-6.4V10z M54.9,10h3.2
			V9.3h-3.2V10z M61.3,10h6.4V9.3h-6.4V10z M69.4,10h3.2V9.3h-3.2V10z M75.8,10h6.4V9.3h-6.4V10z M83.9,10h3.2V9.3h-3.2V10z
			 M90.3,10h6.4V9.3h-6.4V10z M98.4,10h3.2V9.3h-3.2V10z M104.8,10h6.4V9.3h-6.4V10z M112.9,10h3.2V9.3h-3.2V10z M119.3,10h6.4V9.3
			h-6.4V10z M127.4,10h3.2V9.3h-3.2V10z M133.9,10h6.4V9.3h-6.4V10z"/>
		<polygon points="143.2,11.2 144,11.2 144,9.3 141.9,9.3 141.9,10 143.2,10 		"/>
		<rect x="143.2" y="14.1" width="0.9" height="5.9"/>
		<path d="M143.2,59.8h0.9v-5.9h-0.9V59.8z M143.2,51h0.9V48h-0.9V51z M143.2,46.6h0.9v-5.9h-0.9V46.6z M143.2,37.7h0.9v-2.9h-0.9
			V37.7z M143.2,33.3h0.9v-5.9h-0.9V33.3z M143.2,24.5h0.9v-2.9h-0.9V24.5z"/>
		<polygon points="141.9,63.2 144,63.2 144,61.3 143.2,61.3 143.2,62.5 141.9,62.5 		"/>
		<rect x="136.1" y="62.5" width="3.8" height="0.8"/>
		<path d="M127.5,63.2h3.8v-0.8h-3.8V63.2z M133.3,63.2h1.9v-0.8h-1.9V63.2z"/>
		<rect x="124.9" y="62.5" width="1.7" height="0.8"/>
	</g>
	<g>
		<path d="M89.4,59.8l3.2,3l-3.2,3c0,0,0,0.1,0,0.2l0.5,0.5c0,0,0.1,0,0.2,0l3.8-3.6c0,0,0-0.1,0-0.2L90,59.2c0,0-0.1,0-0.2,0
			l-0.5,0.5C89.3,59.7,89.4,59.8,89.4,59.8z"/>
		<path d="M66.4,65.9l-3.2-3l3.2-3c0,0,0-0.1,0-0.2l-0.5-0.5c0,0-0.1,0-0.2,0L62,62.8c0,0,0,0.1,0,0.2l3.8,3.6c0,0,0.1,0,0.2,0
			l0.5-0.5C66.5,66,66.5,65.9,66.4,65.9z"/>
		<path d="M88.1,61.1l1.9,1.8l-1.9,1.8c0,0,0,0.1,0,0.1l0.3,0.3c0,0,0.1,0,0.1,0l2.2-2.1c0,0,0-0.1,0-0.1l-2.2-2.1c0,0-0.1,0-0.1,0
			L88.1,61.1C88.1,61,88.1,61.1,88.1,61.1z"/>
		<path d="M67.7,61.1l-1.9,1.8l1.9,1.8c0,0,0,0.1,0,0.1L67.4,65c0,0-0.1,0-0.1,0l-2.2-2.1c0,0,0-0.1,0-0.1l2.2-2.1c0,0,0.1,0,0.1,0
			L67.7,61.1C67.8,61,67.7,61.1,67.7,61.1z"/>
		<rect x="101.9" y="59.9" width="1.2" height="1.2"/>
		<rect x="97.6" y="59.9" width="1.2" height="1.2"/>
		<rect x="101.9" y="64.7" width="1.2" height="1.2"/>
		<rect x="97.6" y="64.7" width="1.2" height="1.2"/>
		<polygon points="107.8,71.4 116.3,62.9 107.8,54.3 105.5,56.7 106.2,57.4 107.8,55.9 114.8,62.9 107.8,69.8 105.9,68 105.2,68.8 
					"/>
		<polygon points="115,67.4 119.5,62.9 115,58.4 114.6,58.7 118.7,62.9 114.6,67 		"/>
		<polygon points="109.8,65.5 112.5,62.9 109.8,60.2 109.6,60.4 112,62.9 109.6,65.3 		"/>
		<path d="M105,62.9C105,62.9,105,62.9,105,62.9C105,62.9,105,62.9,105,62.9C105,62.8,105,62.8,105,62.9C105,62.8,105,62.8,105,62.9
			c0.1-0.1,0.1-0.1,0.1-0.1c0,0,0,0,0,0c0,0,0,0,0.1,0c0,0,0,0,0.1,0s0,0,0.1,0s0,0,0.1,0s0.1,0,0.1,0c0,0,0.1,0,0.1,0
			c0,0,0.1,0,0.1-0.1c0,0,0.1,0,0.1-0.1c0,0,0.1,0,0.1-0.1s0.1,0,0.1-0.1c0,0,0.1,0,0.1-0.1c0,0,0.1,0,0.1-0.1c0,0,0.1,0,0.1-0.1
			c0,0,0.1,0,0.1-0.1c0,0,0.1,0,0.1,0c0,0,0.1,0,0.1,0s0.1,0,0.1,0c0,0,0.1,0,0.1,0c0,0,0.1,0,0.1,0c0,0,0.1,0,0.1,0
			c0,0,0.1,0,0.1,0c0,0,0.1,0,0.1,0c0,0,0.1,0,0.1,0s0.1,0,0.1,0c0,0,0,0,0.1,0c0,0,0,0,0.1,0s0,0,0.1,0c0,0,0,0,0.1,0s0,0,0.1,0
			c0,0,0,0,0.1,0c0,0,0,0,0.1,0c0,0,0,0,0.1,0c0,0,0,0,0.1,0c0,0,0,0,0.1,0c0,0,0,0,0.1,0c0,0,0,0,0,0c0,0,0,0,0,0s0,0,0,0
			c0,0,0,0,0,0s0,0,0,0c0,0,0,0,0,0c0,0,0,0,0,0c0,0,0,0,0,0c0,0,0,0,0,0c0,0,0,0,0,0s0,0,0,0s0,0,0,0s0,0,0,0s0,0,0,0s0,0,0,0.1
			c0,0,0,0,0,0.1c0,0,0,0,0,0.1c0,0,0,0,0,0.1c0,0,0,0,0,0.1c0,0,0,0,0,0.1s0,0,0,0.1c0,0,0,0,0,0.1c0,0,0,0,0,0.1c0,0,0,0,0,0.1
			c0,0,0,0,0,0.1s0,0,0,0.1c0,0,0,0,0,0.1c0,0,0,0,0,0.1s0,0,0,0.1s0,0,0,0.1c0,0,0,0,0,0.1c0,0,0,0,0,0.1c0,0,0,0,0,0c0,0,0,0,0,0
			c0,0,0,0,0,0s0,0,0,0s0,0,0,0c0,0,0,0,0,0c0,0,0,0,0,0c0,0,0,0,0,0c0,0,0,0,0,0c0,0,0,0,0,0c0,0,0,0,0,0s0,0,0,0s0,0,0,0
			c0,0,0,0,0,0c0,0,0,0-0.1,0c0,0,0,0-0.1,0c0,0,0,0-0.1,0c0,0,0,0-0.1,0c0,0,0,0-0.1,0c0,0,0,0-0.1,0c0,0,0,0-0.1,0s0,0-0.1,0
			c0,0,0,0-0.1,0s0,0-0.1,0c0,0,0,0-0.1,0c0,0,0,0-0.1,0s-0.1,0-0.1,0c0,0-0.1,0-0.1,0c0,0-0.1,0-0.1,0s-0.1,0-0.1,0
			c0,0-0.1,0-0.1,0c0,0-0.1,0-0.1,0c0,0-0.1,0-0.1,0s-0.1,0-0.1,0c0,0-0.1,0-0.1,0c0,0-0.1,0-0.1-0.1c0,0-0.1,0-0.1-0.1
			c0,0-0.1,0-0.1-0.1c0,0-0.1,0-0.1-0.1c0,0-0.1,0-0.1-0.1s-0.1,0-0.1-0.1c0,0-0.1,0-0.1-0.1c0,0-0.1,0-0.1-0.1s-0.1,0-0.1,0
			c0,0-0.1,0-0.1,0s-0.1,0-0.1,0s0,0-0.1,0c0,0,0,0-0.1,0c0,0,0,0-0.1,0c0,0,0,0,0,0C105.1,62.9,105.1,62.9,105,62.9
			C105,62.9,105,62.9,105,62.9C105,62.9,105,62.9,105,62.9C105,62.9,105,62.9,105,62.9C105,62.9,105,62.9,105,62.9z"/>
		<rect x="53.4" y="64.7" width="1.2" height="1.2"/>
		<rect x="57.7" y="64.7" width="1.2" height="1.2"/>
		<rect x="53.4" y="59.9" width="1.2" height="1.2"/>
		<rect x="57.7" y="59.9" width="1.2" height="1.2"/>
		<polygon points="48.7,54.3 40.2,62.9 48.7,71.4 51,69.1 50.3,68.3 48.7,69.8 41.7,62.9 48.7,55.9 50.6,57.7 51.3,57 		"/>
		<polygon points="41.6,58.4 37,62.9 41.6,67.4 41.9,67 37.8,62.9 41.9,58.7 		"/>
		<polygon points="46.7,60.2 44,62.9 46.7,65.5 46.9,65.3 44.5,62.9 46.9,60.4 		"/>
		<path d="M51.5,62.9C51.5,62.9,51.5,62.9,51.5,62.9C51.5,62.9,51.5,62.9,51.5,62.9C51.5,62.9,51.5,62.9,51.5,62.9
			C51.5,62.9,51.5,62.9,51.5,62.9c-0.1,0.1-0.1,0.1-0.1,0.1c0,0,0,0,0,0c0,0,0,0-0.1,0c0,0,0,0-0.1,0c0,0,0,0-0.1,0c0,0,0,0-0.1,0
			c0,0-0.1,0-0.1,0c0,0-0.1,0-0.1,0c0,0-0.1,0-0.1,0.1s-0.1,0-0.1,0.1c0,0-0.1,0-0.1,0.1s-0.1,0-0.1,0.1c0,0-0.1,0-0.1,0.1
			c0,0-0.1,0-0.1,0.1c0,0-0.1,0-0.1,0.1c0,0-0.1,0-0.1,0.1c0,0-0.1,0-0.1,0c0,0-0.1,0-0.1,0c0,0-0.1,0-0.1,0c0,0-0.1,0-0.1,0
			c0,0-0.1,0-0.1,0c0,0-0.1,0-0.1,0c0,0-0.1,0-0.1,0c0,0-0.1,0-0.1,0s-0.1,0-0.1,0c0,0-0.1,0-0.1,0c0,0,0,0-0.1,0s0,0-0.1,0
			s0,0-0.1,0c0,0,0,0-0.1,0c0,0,0,0-0.1,0c0,0,0,0-0.1,0c0,0,0,0-0.1,0s0,0-0.1,0s0,0-0.1,0s0,0-0.1,0c0,0,0,0-0.1,0c0,0,0,0,0,0
			c0,0,0,0,0,0c0,0,0,0,0,0s0,0,0,0c0,0,0,0,0,0c0,0,0,0,0,0c0,0,0,0,0,0c0,0,0,0,0,0c0,0,0,0,0,0c0,0,0,0,0,0c0,0,0,0,0,0
			c0,0,0,0,0,0c0,0,0,0,0,0c0,0,0,0,0,0s0,0,0-0.1c0,0,0,0,0-0.1s0,0,0-0.1c0,0,0,0,0-0.1s0,0,0-0.1c0,0,0,0,0-0.1s0,0,0-0.1
			c0,0,0,0,0-0.1c0,0,0,0,0-0.1s0,0,0-0.1s0,0,0-0.1c0,0,0,0,0-0.1s0,0,0-0.1c0,0,0,0,0-0.1s0,0,0-0.1c0,0,0,0,0-0.1c0,0,0,0,0-0.1
			c0,0,0,0,0-0.1c0,0,0,0,0,0c0,0,0,0,0,0s0,0,0,0c0,0,0,0,0,0c0,0,0,0,0,0c0,0,0,0,0,0c0,0,0,0,0,0c0,0,0,0,0,0c0,0,0,0,0,0
			c0,0,0,0,0,0s0,0,0,0s0,0,0,0c0,0,0,0,0,0s0,0,0,0c0,0,0,0,0.1,0c0,0,0,0,0.1,0c0,0,0,0,0.1,0s0,0,0.1,0s0,0,0.1,0c0,0,0,0,0.1,0
			c0,0,0,0,0.1,0c0,0,0,0,0.1,0s0,0,0.1,0c0,0,0,0,0.1,0c0,0,0,0,0.1,0c0,0,0,0,0.1,0c0,0,0.1,0,0.1,0c0,0,0.1,0,0.1,0
			c0,0,0.1,0,0.1,0s0.1,0,0.1,0c0,0,0.1,0,0.1,0c0,0,0.1,0,0.1,0c0,0,0.1,0,0.1,0c0,0,0.1,0,0.1,0c0,0,0.1,0,0.1,0s0.1,0,0.1,0.1
			s0.1,0,0.1,0.1c0,0,0.1,0,0.1,0.1c0,0,0.1,0,0.1,0.1c0,0,0.1,0,0.1,0.1s0.1,0,0.1,0.1c0,0,0.1,0,0.1,0.1s0.1,0,0.1,0.1
			c0,0,0.1,0,0.1,0c0,0,0.1,0,0.1,0c0,0,0.1,0,0.1,0c0,0,0,0,0.1,0c0,0,0,0,0.1,0c0,0,0,0,0.1,0c0,0,0,0,0,0
			C51.4,62.8,51.5,62.8,51.5,62.9C51.5,62.8,51.5,62.8,51.5,62.9C51.5,62.8,51.5,62.8,51.5,62.9C51.5,62.9,51.5,62.9,51.5,62.9
			C51.5,62.9,51.5,62.9,51.5,62.9z"/>
		<g>
			<path d="M78,57.5c0,0-0.1,0-0.1,0l-5.3,5.3h-2.3l7.7-7.7c0,0,0.1,0,0.1,0l7.7,7.7h-2.3L78,57.5z"/>
			<path d="M77.9,70.5l-7.7-7.7h2.3l5.3,5.3c0,0,0.1,0,0.1,0l5.3-5.3h2.3L78,70.5C78,70.6,77.9,70.6,77.9,70.5z"/>
		</g>
		<g>
			<path d="M78.8,62.8C78.8,62.8,78.8,62.8,78.8,62.8C78.8,62.8,78.8,62.7,78.8,62.8c0-0.1,0-0.1,0-0.1c0,0,0,0,0,0c0,0,0,0,0,0
				c0,0,0,0,0,0c0,0,0,0,0,0c0,0,0,0,0,0s0,0,0,0c0,0,0,0,0,0c0,0,0,0,0,0c0,0,0,0,0,0c0,0,0,0,0,0c0,0,0,0,0,0c0,0,0,0,0,0
				c0,0,0,0,0,0c0,0,0,0,0,0c0,0,0,0,0,0c0,0,0,0,0,0c0,0,0,0,0,0c0,0,0,0,0,0c0,0,0,0,0,0c0,0,0,0,0,0c0,0,0,0,0,0c0,0,0,0,0,0
				c0,0,0,0,0,0c0,0,0,0,0,0c0,0,0,0,0,0c0,0,0,0,0,0c0,0,0,0,0,0c0,0,0,0,0,0c0,0,0,0,0,0c0,0,0,0,0,0c0,0,0,0,0,0c0,0,0,0,0,0
				c0,0,0,0,0,0c0,0,0,0,0,0c0,0,0,0,0,0c0,0,0,0,0,0c0,0,0,0,0,0c0,0,0,0,0,0c0,0,0,0,0,0c0,0,0,0,0,0c0,0,0,0,0,0c0,0,0,0,0,0
				c0,0,0,0,0,0c0,0,0,0,0,0c0,0,0,0,0,0s0,0,0,0c0,0,0,0,0,0c0,0,0,0,0,0c0,0,0,0,0,0c0,0,0,0,0,0c0,0,0,0,0,0c0,0,0,0,0,0
				c0,0,0,0,0,0c0,0,0,0,0,0c0,0,0,0,0,0s0,0,0,0c0,0,0,0,0,0c0,0,0,0,0,0c0,0,0,0,0,0c0,0,0,0,0,0h-1.5c0,0,0-0.1,0-0.1
				c0,0,0-0.1,0-0.1c0,0,0-0.1,0-0.1c0,0,0-0.1,0-0.1c0,0,0-0.1,0-0.1c0,0,0-0.1,0-0.1c0,0,0-0.1,0-0.1c0,0,0-0.1,0-0.1
				c0,0,0-0.1,0-0.1c0,0,0-0.1,0.1-0.1c0,0,0-0.1,0.1-0.1c0,0,0-0.1,0.1-0.1s0-0.1,0.1-0.1c0,0,0-0.1,0.1-0.1c0,0,0-0.1,0.1-0.1
				c0,0,0.1-0.1,0.1-0.1c0,0,0.1-0.1,0.1-0.1c0,0,0.1-0.1,0.1-0.1c0,0,0.1,0,0.1-0.1c0,0,0.1,0,0.1-0.1c0,0,0.1,0,0.1-0.1
				c0,0,0.1,0,0.1-0.1c0,0,0.1,0,0.1-0.1c0,0,0.1,0,0.1,0s0.1,0,0.1,0c0,0,0.1,0,0.1,0c0,0,0.1,0,0.1,0c0,0,0.1,0,0.1,0
				c0,0,0.1,0,0.1,0c0,0,0.1,0,0.1,0c0,0,0.1,0,0.1,0c0,0,0.1,0,0.1,0c0,0,0.1,0,0.1,0c0,0,0.1,0,0.1,0c0,0,0.1,0,0.1,0
				c0,0,0.1,0,0.1,0c0,0,0.1,0,0.1,0c0,0,0.1,0,0.1,0c0,0,0.1,0,0.1,0c0,0,0.1,0,0.1,0c0,0,0.1,0,0.1,0c0,0,0.1,0,0.1,0.1
				c0,0,0.1,0,0.1,0.1c0,0,0.1,0,0.1,0.1c0,0,0.1,0,0.1,0.1c0,0,0.1,0,0.1,0.1s0.1,0,0.1,0.1c0,0,0.1,0.1,0.1,0.1
				c0,0,0.1,0.1,0.1,0.1c0,0,0.1,0.1,0.1,0.1c0,0,0,0.1,0.1,0.1c0,0,0,0.1,0.1,0.1s0,0.1,0.1,0.1c0,0,0,0.1,0.1,0.1
				c0,0,0,0.1,0.1,0.1c0,0,0,0.1,0,0.1c0,0,0,0.1,0,0.1c0,0,0,0.1,0,0.1c0,0,0,0.1,0,0.1c0,0,0,0.1,0,0.1c0,0,0,0.1,0,0.1
				c0,0,0,0.1,0,0.1c0,0,0,0.1,0,0.1c0,0,0,0.1,0,0.1L78.8,62.8C78.8,62.8,78.8,62.8,78.8,62.8z"/>
			<path d="M80.3,63.1c0,0,0,0.1,0,0.1c0,0,0,0.1,0,0.1c0,0,0,0.1,0,0.1c0,0,0,0.1,0,0.1c0,0,0,0.1,0,0.1c0,0,0,0.1,0,0.1
				c0,0,0,0.1,0,0.1c0,0,0,0.1-0.1,0.1c0,0,0,0.1-0.1,0.1c0,0,0,0.1-0.1,0.1c0,0,0,0.1-0.1,0.1c0,0,0,0.1-0.1,0.1c0,0,0,0.1-0.1,0.1
				c0,0-0.1,0.1-0.1,0.1c0,0-0.1,0.1-0.1,0.1c0,0-0.1,0.1-0.1,0.1c0,0-0.1,0-0.1,0.1c0,0-0.1,0-0.1,0.1c0,0-0.1,0-0.1,0.1
				c0,0-0.1,0-0.1,0.1S79,65,79,65c0,0-0.1,0-0.1,0c0,0-0.1,0-0.1,0c0,0-0.1,0-0.1,0c0,0-0.1,0-0.1,0c0,0-0.1,0-0.1,0
				c0,0-0.1,0-0.1,0c0,0-0.1,0-0.1,0c0,0-0.1,0-0.1,0s-0.1,0-0.1,0c0,0-0.1,0-0.1,0c0,0-0.1,0-0.1,0c0,0-0.1,0-0.1,0
				c0,0-0.1,0-0.1,0c0,0-0.1,0-0.1,0c0,0-0.1,0-0.1,0c0,0-0.1,0-0.1,0c0,0-0.1,0-0.1,0c0,0-0.1,0-0.1,0c0,0-0.1,0-0.1-0.1
				s-0.1,0-0.1-0.1c0,0-0.1,0-0.1-0.1c0,0-0.1,0-0.1-0.1c0,0-0.1,0-0.1-0.1c0,0-0.1,0-0.1-0.1c0,0-0.1-0.1-0.1-0.1
				c0,0-0.1-0.1-0.1-0.1c0,0-0.1-0.1-0.1-0.1c0,0,0-0.1-0.1-0.1c0,0,0-0.1-0.1-0.1c0,0,0-0.1-0.1-0.1c0,0,0-0.1-0.1-0.1
				c0,0,0-0.1-0.1-0.1c0,0,0-0.1,0-0.1c0,0,0-0.1,0-0.1c0,0,0-0.1,0-0.1c0,0,0-0.1,0-0.1c0,0,0-0.1,0-0.1c0,0,0-0.1,0-0.1
				c0,0,0-0.1,0-0.1c0,0,0-0.1,0-0.1c0,0,0-0.1,0-0.1H77c0,0,0,0,0,0c0,0,0,0,0,0c0,0,0,0,0,0c0,0,0,0,0,0c0,0,0,0,0,0c0,0,0,0,0,0
				c0,0,0,0,0,0c0,0,0,0,0,0c0,0,0,0,0,0c0,0,0,0,0,0c0,0,0,0,0,0c0,0,0,0,0,0c0,0,0,0,0,0c0,0,0,0,0,0c0,0,0,0,0,0c0,0,0,0,0,0
				c0,0,0,0,0,0c0,0,0,0,0,0c0,0,0,0,0,0c0,0,0,0,0,0c0,0,0,0,0,0c0,0,0,0,0,0c0,0,0,0,0,0c0,0,0,0,0,0c0,0,0,0,0,0c0,0,0,0,0,0
				c0,0,0,0,0,0c0,0,0,0,0,0c0,0,0,0,0,0c0,0,0,0,0,0c0,0,0,0,0,0c0,0,0,0,0,0c0,0,0,0,0,0c0,0,0,0,0,0c0,0,0,0,0,0c0,0,0,0,0,0
				c0,0,0,0,0,0c0,0,0,0,0,0c0,0,0,0,0,0c0,0,0,0,0,0c0,0,0,0,0,0c0,0,0,0,0,0c0,0,0,0,0,0c0,0,0,0,0,0c0,0,0,0,0,0c0,0,0,0,0,0
				c0,0,0,0,0,0c0,0,0,0,0,0c0,0,0,0,0,0c0,0,0,0,0,0c0,0,0,0,0,0c0,0,0,0,0,0c0,0,0,0,0,0c0,0,0,0,0,0c0,0,0,0,0,0s0,0,0,0
				c0,0,0,0,0,0c0,0,0,0,0,0s0,0,0,0c0,0,0,0,0,0c0,0,0,0,0,0c0,0,0,0,0,0c0,0,0,0,0,0c0,0,0,0,0,0h1.5c0,0,0,0.1,0,0.1
				C80.3,63,80.3,63.1,80.3,63.1z"/>
		</g>
	</g>
	<g>
		<path d="M125.6,34.7h3.8l3.3-5.9v20.5h3.3V22.5h-1.6l-0.1,0h-1.8L125.6,34.7z M111.5,22.5v26.8h3.3V28.8l3.3,5.9l3.9,7h3.8
			l-0.2-0.3l-1.9-3.4l-1.9-3.3l-2-3.5l-4.9-8.7h-1.8l-0.1,0H111.5z"/>
		<path d="M69.5,22.5v26.8h3.3V22.5H69.5z"/>
		<path d="M50.2,37.9L50,38.3l-0.2,0.4L49.6,39l-0.2,0.4l-0.2,0.4L49,40l-0.2,0.4l-0.2,0.4l-0.2,0.4l-0.2,0.4l-0.2,0.4l-0.2,0.4
			l-0.2,0.4l-0.2,0.4L47,43.2l-0.2,0.4l-0.2,0.4l-0.2,0.4l-0.2,0.4L46,45l-0.2,0.4l-0.2,0.4l-0.2,0.4l-0.2,0.4l-0.2,0.4l-0.2,0.4
			l-0.2,0.4l-0.2,0.4L44,48.2l-0.2,0.4l-0.2,0.4l-0.2,0.4h0.1h0.1h0.1h0.1H44h0.1h0.1h0.1h0.1h0.1h0.1h0.1h0.1h0.1h0.1h0.1h0.1h0.1
			h0.1h0.1h0.1H46h0.1h0.1h0.1h0.1h0.1h0.1h0.1H47h0.1h0.1l0.2-0.4l0.2-0.4l0.2-0.4l0.2-0.4l0.2-0.4l0.2-0.4l0.2-0.4l0.2-0.4
			l0.2-0.4l0.2-0.4l0.2-0.4l0.2-0.4l0.2-0.4l0.2-0.4l0.2-0.4l0.2-0.4l0.2-0.4l0.2-0.4l0.2-0.4l0.2-0.4l0.2-0.4l0.2-0.4l0.2-0.4
			l0.2-0.4l0.2-0.4l0.2-0.4l0.2-0.4l0.2-0.4l0.2-0.4l0.2-0.4l0.2-0.4L54,38h0.1h0.1h0.1h0.1h0.1h0.1h0.1h0.1h0.1h0.1H55h0.1h0.1h0.1
			h0.1h0.1h0.1h0.1h0.1h0.1h0.1H56h0.1h0.1h0.1h0.1h0.1h0.1h0.1h0.1h0.1h0.1v0.4v0.4V39v0.4v0.4v0.4v0.4v0.4v0.4v0.4v0.4v0.4v0.4
			v0.4v0.4v0.4V44v0.4v0.4V45v0.4v0.4v0.4v0.4v0.4v0.4v0.4v0.4v0.4v0.4v0.4v0.4H57h0.1h0.1h0.1h0.1h0.1h0.1h0.1h0.1h0.1H58h0.1h0.1
			h0.1h0.1h0.1h0.1h0.1h0.1H59h0.1h0.1h0.1h0.1h0.1h0.1h0.1h0.1h0.1H60h0.1h0.1v-0.5v-0.5v-0.5v-0.5V47v-0.5v-0.5v-0.5v-0.5v-0.5
			v-0.5v-0.5v-0.5v-0.5v-0.5V42v-0.5v-0.5v-0.5v-0.5v-0.5v-0.5v-0.5v-0.5v-0.5v-0.5V37v-0.5V36v-0.5v-0.5v-0.5h-0.1H60h-0.1h-0.1
			h-0.1h-0.1h-0.1h-0.1h-0.1h-0.1h-0.1H59h-0.1h-0.1h-0.1h-0.1h-0.1h-0.1h-0.1h-0.1H58h-0.1h-0.1h-0.1h-0.1h-0.1h-0.1h-0.1h-0.1
			h-0.1H57h-0.1h0h0h0h0h0h0h0h0h0h0h0h0h0h0h0h0h0h0h0h0h0h0h0h0h0h0h0h0h0h0h0h0l0.1-0.2l0.1-0.2l0.1-0.2l0.1-0.2l0.1-0.2l0.1-0.2
			l0.1-0.2l0.1-0.2l0.1-0.2l0.1-0.2l0.1-0.2l0.1-0.2l0.1-0.2l0.1-0.2l0.1-0.2l0.1-0.2l0.1-0.2l0.1-0.2l0.1-0.2l0.1-0.2l0.1-0.2
			l0.1-0.2l0.1-0.2l0.1-0.2l0.1-0.2l0.1-0.2l0.1-0.2l0.1-0.2l0.1-0.2l0.1-0.2l0.1-0.2l0.1-0.2v-0.2v-0.2v-0.2v-0.2v-0.2v-0.2v-0.2
			v-0.2v-0.2v-0.2v-0.2v-0.2v-0.2v-0.2v-0.2v-0.2v-0.2v-0.2v-0.2v-0.2v-0.2v-0.2V24v-0.2v-0.2v-0.2v-0.2v-0.2V23v-0.2v-0.2v-0.2h0h0
			h0h0h0h0h0h0h0h0h0h0h0h0h0h0h0h0h0h0h0h0h0h0h0h0h0h0h0h0h0h0l-0.1,0.1l-0.1,0.1l-0.1,0.1l-0.1,0.1L59.2,23l-0.1,0.1l-0.1,0.1
			L59,23.3L59,23.4l-0.1,0.1l-0.1,0.1l-0.1,0.1l-0.1,0.1l-0.1,0.1L58.6,24l-0.1,0.1l-0.1,0.1l-0.1,0.1l-0.1,0.1l-0.1,0.1l-0.1,0.1
			l-0.1,0.1l-0.1,0.1L58,25L58,25.1l-0.1,0.1l-0.1,0.1l-0.1,0.1l-0.1,0.1l-0.1,0.1l-0.1,0.1l-0.1,0.1h0h0h0h0h0h0h0h0h0h0h0h0h0h0h0
			h0h0h0h0h0h0h0h0h0h0h0h0h0h0h0h0h0l-0.2,0.3l-0.2,0.3L57,26.6l-0.2,0.3l-0.2,0.3l-0.2,0.3l-0.2,0.3L56.2,28L56,28.3l-0.2,0.3
			l-0.2,0.3l-0.2,0.3l-0.2,0.3l-0.2,0.3L55,29.9l-0.2,0.3l-0.2,0.3l-0.2,0.3l-0.2,0.3l-0.2,0.3L54,31.6l-0.2,0.3l-0.2,0.3l-0.2,0.3
			l-0.2,0.3L53.2,33L53,33.3l-0.2,0.3l-0.2,0.3l-0.2,0.3l-0.2,0.3l-0.2,0.3h0h0h0h0h0h0h0h0h0h0h0h0h0h0h0h0h0h0h0h0h0h0h0h0h0h0h0
			h0h0h0h0h0c-0.1,0-0.2,0-0.2,0c-0.1,0-0.2,0-0.2,0c-0.1,0-0.1,0-0.2,0s-0.1,0-0.2,0c-0.1,0-0.1,0-0.2,0c-0.1,0-0.1,0-0.2-0.1
			c-0.1,0-0.1,0-0.2-0.1s-0.1-0.1-0.2-0.1c-0.1,0-0.1-0.1-0.2-0.1c-0.1,0-0.1-0.1-0.2-0.1S49,34.1,48.9,34c-0.1,0-0.1-0.1-0.2-0.1
			s-0.1-0.1-0.2-0.1c-0.1,0-0.1-0.1-0.2-0.1s-0.1-0.1-0.2-0.1c-0.1,0-0.1-0.1-0.2-0.1c-0.1-0.1-0.1-0.1-0.1-0.2s-0.1-0.1-0.1-0.2
			c0-0.1-0.1-0.1-0.1-0.2s-0.1-0.1-0.1-0.2c0-0.1-0.1-0.1-0.1-0.2c0-0.1-0.1-0.1-0.1-0.2s-0.1-0.1-0.1-0.2c0-0.1-0.1-0.1-0.1-0.2
			s-0.1-0.1-0.1-0.2c0-0.1,0-0.1-0.1-0.2c0-0.1,0-0.1-0.1-0.2c0-0.1,0-0.1,0-0.2s0-0.1,0-0.2s0-0.1,0-0.2c0-0.1,0-0.2,0-0.2
			s0-0.2,0-0.2c0-0.1,0-0.2,0-0.2c0-0.1,0-0.2,0-0.2c0-0.1,0-0.1,0-0.2c0-0.1,0-0.1,0-0.2c0-0.1,0-0.1,0-0.2c0-0.1,0-0.1,0.1-0.2
			c0-0.1,0-0.1,0.1-0.2s0.1-0.1,0.1-0.2s0.1-0.1,0.1-0.2c0-0.1,0.1-0.1,0.1-0.2c0-0.1,0.1-0.1,0.1-0.2c0-0.1,0.1-0.1,0.1-0.2
			c0-0.1,0.1-0.1,0.1-0.2c0-0.1,0.1-0.1,0.1-0.2c0-0.1,0.1-0.1,0.1-0.2c0-0.1,0.1-0.1,0.1-0.2s0.1-0.1,0.2-0.1
			c0.1,0,0.1-0.1,0.2-0.1s0.1-0.1,0.2-0.1c0.1,0,0.1-0.1,0.2-0.1s0.1-0.1,0.2-0.1c0.1,0,0.1-0.1,0.2-0.1c0.1,0,0.1-0.1,0.2-0.1
			c0.1,0,0.1-0.1,0.2-0.1c0.1,0,0.1-0.1,0.2-0.1s0.1,0,0.2-0.1c0.1,0,0.1,0,0.2-0.1c0.1,0,0.1,0,0.2,0c0.1,0,0.1,0,0.2,0
			s0.1,0,0.2,0s0.1,0,0.2,0c0.1,0,0.2,0,0.2,0h0.1h0.1h0.1h0.1h0.1H52h0.1h0.1h0.1h0.1h0.1h0.1h0.1H53h0.1h0.1h0.1h0.1h0.1h0.1h0.1
			H54h0.1h0.1h0.1h0.1h0.1h0.1h0.1H55h0.1h0.1l0.1-0.1l0.1-0.1l0.1-0.1l0.1-0.1l0.1-0.1l0.1-0.1l0.1-0.1l0.1-0.1l0.1-0.1l0.1-0.1
			l0.1-0.1l0.1-0.1l0.1-0.1l0.1-0.1l0.1-0.1l0.1-0.1l0.1-0.1l0.1-0.1l0.1-0.1l0.1-0.1l0.1-0.1l0.1-0.1l0.1-0.1l0.1-0.1l0.1-0.1
			l0.1-0.1l0.1-0.1l0.1-0.1l0.1-0.1l0.1-0.1l0.1-0.1l0.1-0.1h-0.2h-0.2h-0.2h-0.2h-0.2h-0.2h-0.2h-0.2h-0.2h-0.2h-0.2H55h-0.2h-0.2
			h-0.2h-0.2h-0.2h-0.2h-0.2h-0.2h-0.2h-0.2h-0.2h-0.2h-0.2h-0.2h-0.2H52h-0.2h-0.2h-0.2h-0.2c-0.1,0-0.3,0-0.4,0s-0.3,0-0.4,0
			s-0.3,0-0.4,0s-0.3,0-0.4,0.1c-0.1,0-0.3,0.1-0.4,0.1c-0.1,0-0.2,0.1-0.4,0.1c-0.1,0-0.2,0.1-0.4,0.1c-0.1,0-0.2,0.1-0.4,0.1
			c-0.1,0-0.2,0.1-0.3,0.2c-0.1,0.1-0.2,0.1-0.3,0.2c-0.1,0.1-0.2,0.1-0.3,0.2s-0.2,0.1-0.3,0.2S46.7,24,46.6,24
			c-0.1,0.1-0.2,0.2-0.3,0.2s-0.2,0.2-0.3,0.2c-0.1,0.1-0.2,0.2-0.3,0.3s-0.2,0.2-0.3,0.3c-0.1,0.1-0.2,0.2-0.2,0.3
			s-0.2,0.2-0.2,0.3s-0.1,0.2-0.2,0.3s-0.1,0.2-0.2,0.3c-0.1,0.1-0.1,0.2-0.2,0.3c-0.1,0.1-0.1,0.2-0.2,0.3s-0.1,0.2-0.2,0.3
			c0,0.1-0.1,0.2-0.1,0.4s-0.1,0.2-0.1,0.4c0,0.1-0.1,0.2-0.1,0.4c0,0.1-0.1,0.2-0.1,0.4c0,0.1,0,0.3-0.1,0.4c0,0.1,0,0.3,0,0.4
			c0,0.1,0,0.3,0,0.4c0,0.1,0,0.3,0,0.4c0,0.1,0,0.2,0,0.4c0,0.1,0,0.2,0,0.4s0,0.2,0,0.4c0,0.1,0,0.2,0.1,0.4c0,0.1,0,0.2,0.1,0.3
			c0,0.1,0.1,0.2,0.1,0.3s0.1,0.2,0.1,0.3c0,0.1,0.1,0.2,0.1,0.3s0.1,0.2,0.1,0.3c0,0.1,0.1,0.2,0.1,0.3s0.1,0.2,0.2,0.3
			c0.1,0.1,0.1,0.2,0.2,0.3c0.1,0.1,0.1,0.2,0.2,0.3s0.1,0.2,0.2,0.3c0.1,0.1,0.1,0.2,0.2,0.3c0.1,0.1,0.1,0.2,0.2,0.3
			c0.1,0.1,0.2,0.2,0.2,0.3s0.2,0.2,0.2,0.2c0.1,0.1,0.2,0.2,0.3,0.2c0.1,0.1,0.2,0.1,0.3,0.2s0.2,0.1,0.3,0.2
			c0.1,0.1,0.2,0.1,0.3,0.2s0.2,0.1,0.3,0.2c0.1,0.1,0.2,0.1,0.3,0.2s0.2,0.1,0.3,0.2c0.1,0.1,0.2,0.1,0.3,0.1
			c0.1,0,0.2,0.1,0.3,0.1c0.1,0,0.2,0.1,0.3,0.1c0.1,0,0.2,0.1,0.3,0.1c0.1,0,0.2,0.1,0.3,0.1c0.1,0,0.2,0,0.3,0.1
			C50,37.9,50.1,37.9,50.2,37.9z"/>
		<path d="M32.2,49.3h3.3V22.5h-1.6H20.5v3.3h11.7v9.1H21.7v3.3h10.6V46H20.5v3.3H32.2z"/>
		<rect x="85.1" y="35" transform="matrix(1 -2.406571e-03 2.406571e-03 1 -8.790683e-02 0.2219)" width="14.1" height="3.2"/>
		<g>
			<path d="M102.3,36.7L102.3,36.7L102.3,36.7c0-0.2,0-0.4,0-0.6c0-0.2,0-0.3,0-0.5c0-0.2,0-0.3-0.1-0.5c0-0.2-0.1-0.3-0.1-0.5
				c0-0.2-0.1-0.3-0.1-0.5c0-0.2-0.1-0.3-0.1-0.5c0-0.2-0.1-0.3-0.2-0.5c-0.1-0.2-0.1-0.3-0.2-0.5s-0.1-0.3-0.2-0.4
				c-0.1-0.1-0.1-0.3-0.2-0.4s-0.2-0.3-0.2-0.4c-0.1-0.1-0.2-0.3-0.3-0.4c-0.1-0.1-0.2-0.3-0.3-0.4c-0.1-0.1-0.2-0.3-0.3-0.4
				s-0.2-0.2-0.3-0.4c-0.1-0.1-0.2-0.2-0.3-0.3s-0.2-0.2-0.4-0.3c-0.1-0.1-0.2-0.2-0.4-0.3c-0.1-0.1-0.3-0.2-0.4-0.3
				c-0.1-0.1-0.3-0.2-0.4-0.3c-0.1-0.1-0.3-0.2-0.4-0.3c-0.1-0.1-0.3-0.2-0.4-0.2c-0.1-0.1-0.3-0.2-0.4-0.2
				c-0.1-0.1-0.3-0.1-0.4-0.2c-0.2-0.1-0.3-0.1-0.5-0.2S95.3,27,95.1,27c-0.2,0-0.3-0.1-0.5-0.1s-0.3-0.1-0.5-0.1
				c-0.2,0-0.3-0.1-0.5-0.1c-0.2,0-0.3,0-0.5-0.1c-0.2,0-0.3,0-0.5,0s-0.3,0-0.5,0c-0.2,0-0.3,0-0.5,0s-0.3,0-0.5,0s-0.3,0-0.5,0.1
				c-0.2,0-0.3,0.1-0.5,0.1c-0.2,0-0.3,0.1-0.5,0.1c-0.2,0-0.3,0.1-0.5,0.1c-0.2,0-0.3,0.1-0.5,0.2c-0.2,0.1-0.3,0.1-0.5,0.2
				c-0.2,0.1-0.3,0.1-0.4,0.2c-0.1,0.1-0.3,0.1-0.4,0.2c-0.1,0.1-0.3,0.2-0.4,0.2c-0.1,0.1-0.3,0.2-0.4,0.3
				c-0.1,0.1-0.3,0.2-0.4,0.3c-0.1,0.1-0.3,0.2-0.4,0.3c-0.1,0.1-0.2,0.2-0.4,0.3c-0.1,0.1-0.2,0.2-0.4,0.3s-0.2,0.2-0.3,0.4
				c-0.1,0.1-0.2,0.2-0.3,0.4c-0.1,0.1-0.2,0.3-0.3,0.4c-0.1,0.1-0.2,0.3-0.3,0.4c-0.1,0.1-0.2,0.3-0.3,0.4s-0.2,0.3-0.2,0.4
				s-0.2,0.3-0.2,0.4c-0.1,0.1-0.1,0.3-0.2,0.4c-0.1,0.2-0.1,0.3-0.2,0.5c-0.1,0.2-0.1,0.3-0.2,0.5s-0.1,0.3-0.1,0.5
				c0,0.2-0.1,0.3-0.1,0.5c0,0.2-0.1,0.3-0.1,0.5c0,0.2,0,0.3-0.1,0.5c0,0.2,0,0.3,0,0.5s0,0.3,0,0.5c0,0,0,0,0,0h-3.2
				c0-0.2,0-0.5,0-0.7c0-0.2,0-0.5,0-0.7c0-0.2,0.1-0.4,0.1-0.7c0-0.2,0.1-0.4,0.1-0.7s0.1-0.4,0.1-0.6c0.1-0.2,0.1-0.4,0.2-0.6
				c0.1-0.2,0.1-0.4,0.2-0.6c0.1-0.2,0.2-0.4,0.2-0.6c0.1-0.2,0.2-0.4,0.3-0.6c0.1-0.2,0.2-0.4,0.3-0.6c0.1-0.2,0.2-0.4,0.3-0.6
				c0.1-0.2,0.2-0.4,0.3-0.5c0.1-0.2,0.2-0.4,0.4-0.5s0.3-0.3,0.4-0.5c0.1-0.2,0.3-0.3,0.4-0.5c0.1-0.2,0.3-0.3,0.4-0.5
				c0.2-0.2,0.3-0.3,0.5-0.4s0.3-0.3,0.5-0.4c0.2-0.1,0.3-0.3,0.5-0.4c0.2-0.1,0.3-0.3,0.5-0.4c0.2-0.1,0.4-0.2,0.5-0.3
				c0.2-0.1,0.4-0.2,0.6-0.3c0.2-0.1,0.4-0.2,0.6-0.3c0.2-0.1,0.4-0.2,0.6-0.3c0.2-0.1,0.4-0.2,0.6-0.2c0.2-0.1,0.4-0.1,0.6-0.2
				c0.2-0.1,0.4-0.1,0.6-0.2c0.2-0.1,0.4-0.1,0.6-0.2c0.2,0,0.4-0.1,0.7-0.1c0.2,0,0.4-0.1,0.7-0.1c0.2,0,0.5,0,0.7-0.1
				c0.2,0,0.5,0,0.7,0c0.2,0,0.5,0,0.7,0c0.2,0,0.5,0,0.7,0c0.2,0,0.4,0.1,0.7,0.1c0.2,0,0.4,0.1,0.7,0.1c0.2,0,0.4,0.1,0.6,0.1
				c0.2,0.1,0.4,0.1,0.6,0.2c0.2,0.1,0.4,0.1,0.6,0.2s0.4,0.2,0.6,0.2s0.4,0.2,0.6,0.3c0.2,0.1,0.4,0.2,0.6,0.3
				c0.2,0.1,0.4,0.2,0.6,0.3c0.2,0.1,0.4,0.2,0.5,0.3c0.2,0.1,0.4,0.2,0.5,0.4c0.2,0.1,0.3,0.3,0.5,0.4c0.2,0.1,0.3,0.3,0.5,0.4
				c0.2,0.1,0.3,0.3,0.5,0.4c0.2,0.2,0.3,0.3,0.4,0.5c0.1,0.2,0.3,0.3,0.4,0.5s0.3,0.3,0.4,0.5s0.3,0.3,0.4,0.5s0.2,0.4,0.4,0.5
				c0.1,0.2,0.2,0.4,0.3,0.6c0.1,0.2,0.2,0.4,0.3,0.6c0.1,0.2,0.2,0.4,0.3,0.6c0.1,0.2,0.2,0.4,0.2,0.6c0.1,0.2,0.1,0.4,0.2,0.6
				c0.1,0.2,0.1,0.4,0.2,0.6c0.1,0.2,0.1,0.4,0.2,0.6c0,0.2,0.1,0.4,0.1,0.7c0,0.2,0.1,0.4,0.1,0.7c0,0.2,0,0.5,0.1,0.7
				c0,0.2,0,0.5,0,0.7c0,0,0,0,0,0.1L102.3,36.7L102.3,36.7z"/>
			<path d="M105.5,37.9c0,0.2,0,0.4-0.1,0.7c0,0.2-0.1,0.4-0.1,0.6c0,0.2-0.1,0.4-0.1,0.6s-0.1,0.4-0.2,0.6
				c-0.1,0.2-0.1,0.4-0.2,0.6s-0.1,0.4-0.2,0.6c-0.1,0.2-0.2,0.4-0.3,0.6c-0.1,0.2-0.2,0.4-0.3,0.6c-0.1,0.2-0.2,0.4-0.3,0.5
				c-0.1,0.2-0.2,0.4-0.3,0.5c-0.1,0.2-0.2,0.3-0.4,0.5c-0.1,0.2-0.2,0.3-0.4,0.5s-0.3,0.3-0.4,0.5c-0.1,0.2-0.3,0.3-0.4,0.5
				s-0.3,0.3-0.4,0.4c-0.1,0.1-0.3,0.3-0.5,0.4c-0.2,0.1-0.3,0.3-0.5,0.4c-0.2,0.1-0.3,0.3-0.5,0.4c-0.2,0.1-0.3,0.2-0.5,0.4
				s-0.4,0.2-0.5,0.3s-0.4,0.2-0.5,0.3c-0.2,0.1-0.4,0.2-0.6,0.3c-0.2,0.1-0.4,0.2-0.6,0.3c-0.2,0.1-0.4,0.2-0.6,0.2
				c-0.2,0.1-0.4,0.1-0.6,0.2c-0.2,0.1-0.4,0.1-0.6,0.2c-0.2,0.1-0.4,0.1-0.6,0.1s-0.4,0.1-0.6,0.1s-0.4,0.1-0.7,0.1
				c-0.2,0-0.4,0-0.7,0.1l0,0l0,0l0,0l0,0l0,0l0,0l0,0l0,0l0,0l0,0l0,0l0,0l0,0l0,0l0,0l0,0l0,0l0,0l0,0l0,0l0,0l0,0l0,0l0,0l0,0
				l0,0l0,0l0,0l0,0l0,0l0,0l0,0c-0.2,0-0.4,0-0.7,0s-0.4,0-0.7-0.1c-0.2,0-0.4-0.1-0.6-0.1c-0.2,0-0.4-0.1-0.6-0.1
				c-0.2-0.1-0.4-0.1-0.6-0.2c-0.2-0.1-0.4-0.1-0.6-0.2c-0.2-0.1-0.4-0.1-0.6-0.2c-0.2-0.1-0.4-0.2-0.6-0.3
				c-0.2-0.1-0.4-0.2-0.6-0.3c-0.2-0.1-0.4-0.2-0.5-0.3c-0.2-0.1-0.4-0.2-0.5-0.3c-0.2-0.1-0.3-0.2-0.5-0.4
				c-0.2-0.1-0.3-0.2-0.5-0.4c-0.2-0.1-0.3-0.3-0.5-0.4c-0.2-0.1-0.3-0.3-0.5-0.4s-0.3-0.3-0.4-0.4c-0.1-0.2-0.3-0.3-0.4-0.5
				c-0.1-0.2-0.3-0.3-0.4-0.5c-0.1-0.2-0.3-0.3-0.4-0.5c-0.1-0.2-0.2-0.3-0.4-0.5c-0.1-0.2-0.2-0.4-0.3-0.5
				c-0.1-0.2-0.2-0.4-0.3-0.5c-0.1-0.2-0.2-0.4-0.3-0.6c-0.1-0.2-0.2-0.4-0.3-0.6c-0.1-0.2-0.2-0.4-0.2-0.6s-0.1-0.4-0.2-0.6
				c-0.1-0.2-0.1-0.4-0.2-0.6c-0.1-0.2-0.1-0.4-0.1-0.6s-0.1-0.4-0.1-0.6c0-0.2-0.1-0.4-0.1-0.6c0-0.2,0-0.4,0-0.7
				c0-0.2,0-0.4,0-0.7c0,0,0,0,0,0H82c0,0,0,0,0,0c0,0,0,0,0,0s0,0,0,0c0,0,0,0,0,0c0,0,0,0,0,0c0,0,0,0,0,0s0,0,0,0c0,0,0,0,0,0
				c0,0,0,0,0,0c0,0,0,0,0,0s0,0,0,0c0,0,0,0,0,0c0,0,0,0,0,0c0,0,0,0,0,0s0,0,0,0c0,0,0,0,0,0c0,0,0,0,0,0c0,0,0,0,0,0c0,0,0,0,0,0
				c0,0,0,0,0,0c0,0,0,0,0,0c0,0,0,0,0,0s0,0,0,0c0,0,0,0,0,0c0,0,0,0,0,0s0,0,0,0s0,0,0,0s0,0,0,0c0,0,0,0,0,0c0,0,0,0,0,0
				c0,0,0,0,0,0c0,0,0,0,0,0c0,0.2,0,0.3,0,0.5c0,0.2,0,0.3,0.1,0.5c0,0.2,0.1,0.3,0.1,0.5c0,0.2,0.1,0.3,0.1,0.5
				c0,0.2,0.1,0.3,0.1,0.5c0,0.2,0.1,0.3,0.2,0.4c0.1,0.1,0.1,0.3,0.2,0.4S83,40.9,83,41c0.1,0.1,0.1,0.3,0.2,0.4s0.2,0.3,0.2,0.4
				c0.1,0.1,0.2,0.3,0.3,0.4c0.1,0.1,0.2,0.3,0.3,0.4c0.1,0.1,0.2,0.2,0.3,0.4c0.1,0.1,0.2,0.2,0.3,0.4c0.1,0.1,0.2,0.2,0.3,0.3
				c0.1,0.1,0.2,0.2,0.3,0.3c0.1,0.1,0.2,0.2,0.3,0.3c0.1,0.1,0.2,0.2,0.4,0.3c0.1,0.1,0.2,0.2,0.4,0.3s0.3,0.2,0.4,0.3
				s0.3,0.2,0.4,0.2c0.1,0.1,0.3,0.2,0.4,0.2c0.1,0.1,0.3,0.1,0.4,0.2c0.1,0.1,0.3,0.1,0.4,0.2s0.3,0.1,0.4,0.2
				c0.1,0.1,0.3,0.1,0.5,0.1c0.2,0,0.3,0.1,0.5,0.1s0.3,0.1,0.5,0.1c0.2,0,0.3,0.1,0.5,0.1c0.2,0,0.3,0,0.5,0.1s0.3,0,0.5,0
				c0.2,0,0.3,0,0.5,0c0.2,0,0.3,0,0.5,0s0.3,0,0.5,0s0.3,0,0.5-0.1c0.2,0,0.3-0.1,0.5-0.1c0.2,0,0.3-0.1,0.5-0.1
				c0.2,0,0.3-0.1,0.5-0.1c0.2,0,0.3-0.1,0.5-0.1c0.1-0.1,0.3-0.1,0.4-0.2c0.1-0.1,0.3-0.1,0.4-0.2c0.1-0.1,0.3-0.1,0.4-0.2
				s0.3-0.1,0.4-0.2s0.3-0.2,0.4-0.2c0.1-0.1,0.3-0.2,0.4-0.3c0.1-0.1,0.3-0.2,0.4-0.3s0.2-0.2,0.4-0.3s0.2-0.2,0.3-0.3
				c0.1-0.1,0.2-0.2,0.3-0.3c0.1-0.1,0.2-0.2,0.3-0.3c0.1-0.1,0.2-0.2,0.3-0.4c0.1-0.1,0.2-0.2,0.3-0.4c0.1-0.1,0.2-0.3,0.3-0.4
				c0.1-0.1,0.2-0.3,0.2-0.4s0.2-0.3,0.2-0.4c0.1-0.1,0.1-0.3,0.2-0.4c0.1-0.1,0.1-0.3,0.2-0.4c0.1-0.1,0.1-0.3,0.2-0.4
				c0.1-0.1,0.1-0.3,0.2-0.4c0-0.2,0.1-0.3,0.1-0.5c0-0.2,0.1-0.3,0.1-0.5s0.1-0.3,0.1-0.5c0-0.2,0-0.3,0.1-0.5s0-0.3,0-0.5l0,0l0,0
				l0,0v0l0,0l0,0l0,0l0,0l0,0l0,0v0l0,0l0,0l0,0l0,0l0,0v0l0,0l0,0l0,0l0,0l0,0l0,0v0l0,0l0,0l0,0l0,0l0,0v0h3.3c0,0.2,0,0.4,0,0.6
				C105.5,37.5,105.5,37.7,105.5,37.9z"/>
		</g>
	</g>
</g>
<g>
</g>
<g>
</g>
<g>
</g>
<g>
</g>
<g>
</g>
<g>
</g>
</svg>
